<?xml version="1.0" encoding="UTF-8" standalone="no"?>
<!-- Created with Inkscape (http://www.inkscape.org/) -->

<svg
   width="210mm"
   height="297mm"
   viewBox="0 0 210 297"
   version="1.1"
   id="svg1"
   xml:space="preserve"
   inkscape:version="1.4 (86a8ad7, 2024-10-11)"
   sodipodi:docname="modulink.svg"
   xmlns:inkscape="http://www.inkscape.org/namespaces/inkscape"
   xmlns:sodipodi="http://sodipodi.sourceforge.net/DTD/sodipodi-0.dtd"
   xmlns="http://www.w3.org/2000/svg"
   xmlns:svg="http://www.w3.org/2000/svg"><sodipodi:namedview
     id="namedview1"
     pagecolor="#ffffff"
     bordercolor="#000000"
     borderopacity="0.25"
     inkscape:showpageshadow="2"
     inkscape:pageopacity="0.0"
     inkscape:pagecheckerboard="0"
     inkscape:deskcolor="#d1d1d1"
     inkscape:document-units="mm"
     inkscape:zoom="0.76167929"
     inkscape:cx="464.10609"
     inkscape:cy="561.25984"
     inkscape:window-width="1920"
     inkscape:window-height="1051"
     inkscape:window-x="-9"
     inkscape:window-y="-9"
     inkscape:window-maximized="1"
     inkscape:current-layer="layer1" /><defs
     id="defs1"><clipPath
       clipPathUnits="userSpaceOnUse"
       id="clipPath1"><path
         style="fill:none;stroke:#4d4d4d;stroke-width:0.4;stroke-linecap:square;stroke-miterlimit:10;stroke-dashoffset:0.377953;paint-order:stroke fill markers"
         d="m 44.704034,115.44449 60.915386,-56.985366 69.2667,68.284186 -67.30168,53.05534 z"
         id="path2" /></clipPath></defs><g
     inkscape:label="Layer 1"
     inkscape:groupmode="layer"
     id="layer1"><g
       id="g15"
       transform="matrix(1.4489938,0,0,1.4489938,-47.01179,-34.996955)"><g
         id="g12"
         style="opacity:0.979814;fill:#999999;fill-opacity:1;stroke:none"
         transform="translate(42.16312,-42.833405)"><path
           style="fill:#999999;fill-opacity:1;stroke:none;stroke-width:0.4;stroke-linecap:square;stroke-miterlimit:10;stroke-dashoffset:0.377953;paint-order:stroke fill markers"
           d="m 57.663156,128.17894 c -8.459415,-8.34602 2.519188,-20.70654 10.845416,-14.62212 0.987835,0.72186 1.994597,1.77801 3.049323,2.8116 L 104.38421,149.54211 92.4,162.91579 Z"
           id="path11"
           sodipodi:nodetypes="cscccc" /><path
           style="fill:#999999;fill-opacity:1;stroke:none;stroke-width:0.4;stroke-linecap:square;stroke-miterlimit:10;stroke-dashoffset:0.377953;paint-order:stroke fill markers"
           d="m 109.2359,154.05468 c 8.45941,8.34602 -2.51919,20.70654 -10.845423,14.62212 -0.987835,-0.72186 -1.994597,-1.77801 -3.049323,-2.8116 L 62.514841,132.69151 74.499049,119.31783 Z"
           id="path12"
           sodipodi:nodetypes="cscccc" /></g><g
         id="g6"
         style="opacity:0.979814;fill:#6e6eff;fill-opacity:0.980392;stroke:none"
         transform="matrix(1,0,0,-1,2.4315789,238.96345)"><path
           style="fill:#6e6eff;fill-opacity:0.980392;stroke:none;stroke-width:0.4;stroke-linecap:square;stroke-miterlimit:10;stroke-dashoffset:0.377953;paint-order:stroke fill markers"
           d="m 57.663156,128.17894 c -8.459415,-8.34602 2.519188,-20.70654 10.845416,-14.62212 0.987835,0.72186 1.994597,1.77801 3.049323,2.8116 L 104.38421,149.54211 92.4,162.91579 Z"
           id="path5"
           sodipodi:nodetypes="cscccc" /><path
           style="fill:#6e6eff;fill-opacity:0.980392;stroke:none;stroke-width:0.4;stroke-linecap:square;stroke-miterlimit:10;stroke-dashoffset:0.377953;paint-order:stroke fill markers"
           d="m 109.2359,154.05468 c 8.45941,8.34602 -2.51919,20.70654 -10.845423,14.62212 -0.987835,-0.72186 -1.994597,-1.77801 -3.049323,-2.8116 L 62.514841,132.69151 74.499049,119.31783 Z"
           id="path6"
           sodipodi:nodetypes="cscccc" /></g><g
         id="g4"
         style="opacity:0.979814;fill:#999999;fill-opacity:1;stroke:none"
         transform="translate(0.34736842,-1.064912)"><path
           style="fill:#999999;fill-opacity:1;stroke:none;stroke-width:0.4;stroke-linecap:square;stroke-miterlimit:10;stroke-dashoffset:0.377953;paint-order:stroke fill markers"
           d="m 57.663156,128.17894 c -8.459415,-8.34602 2.519188,-20.70654 10.845416,-14.62212 0.987835,0.72186 1.994597,1.77801 3.049323,2.8116 L 104.38421,149.54211 92.4,162.91579 Z"
           id="path3"
           sodipodi:nodetypes="cscccc" /><path
           style="fill:#999999;fill-opacity:1;stroke:none;stroke-width:0.4;stroke-linecap:square;stroke-miterlimit:10;stroke-dashoffset:0.377953;paint-order:stroke fill markers"
           d="m 109.2359,154.05468 c 8.45941,8.34602 -2.51919,20.70654 -10.845423,14.62212 -0.987835,-0.72186 -1.994597,-1.77801 -3.049323,-2.8116 L 62.514841,132.69151 74.499049,119.31783 Z"
           id="path4"
           sodipodi:nodetypes="cscccc" /></g><g
         id="g10"
         style="opacity:0.979814;fill:#6e6eff;fill-opacity:0.980392;stroke:none"
         transform="matrix(1,0,0,-1,39.689399,281.11423)"><path
           style="fill:#6e6eff;fill-opacity:0.980392;stroke:none;stroke-width:0.4;stroke-linecap:square;stroke-miterlimit:10;stroke-dashoffset:0.377953;paint-order:stroke fill markers"
           d="m 57.663156,128.17894 c -8.459415,-8.34602 2.519188,-20.70654 10.845416,-14.62212 0.987835,0.72186 1.994597,1.77801 3.049323,2.8116 L 104.38421,149.54211 92.4,162.91579 Z"
           id="path9"
           sodipodi:nodetypes="cscccc" /><path
           style="fill:#6e6eff;fill-opacity:0.980392;stroke:none;stroke-width:0.4;stroke-linecap:square;stroke-miterlimit:10;stroke-dashoffset:0.377953;paint-order:stroke fill markers"
           d="m 109.2359,154.05468 c 8.45941,8.34602 -2.51919,20.70654 -10.845423,14.62212 -0.987835,-0.72186 -1.994597,-1.77801 -3.049323,-2.8116 L 62.514841,132.69151 74.499049,119.31783 Z"
           id="path10"
           sodipodi:nodetypes="cscccc" /></g><g
         id="g14"
         style="opacity:0.979814;fill:#999999;fill-opacity:1;stroke:none"
         transform="translate(42.16312,-42.833405)"><path
           style="fill:#999999;fill-opacity:1;stroke:none;stroke-width:0.4;stroke-linecap:square;stroke-miterlimit:10;stroke-dashoffset:0.377953;paint-order:stroke fill markers"
           d="m 67.519297,136.28334 c -3.843716,-3.02537 11.088083,-6.78932 11.059964,-11.4277 -0.0074,-1.22345 0.520838,-0.67825 1.575564,0.35534 L 104.38421,149.54211 92.4,162.91579 Z"
           id="path13"
           sodipodi:nodetypes="cscccc" /><path
           style="fill:#999999;fill-opacity:1;stroke:none;stroke-width:0.4;stroke-linecap:square;stroke-miterlimit:10;stroke-dashoffset:0.377953;paint-order:stroke fill markers"
           d="m 109.2359,154.05468 c 8.45941,8.34602 -2.51919,20.70654 -10.845423,14.62212 -0.987835,-0.72186 -1.994597,-1.77801 -3.049323,-2.8116 L 67.833062,137.7045 79.165954,124.72161 Z"
           id="path14"
           sodipodi:nodetypes="cscccc" /></g></g></g></svg>
